<svg width="231" height="147" viewBox="0 0 231 147" fill="none" xmlns="http://www.w3.org/2000/svg">
<rect x="0.899414" y="0.510956" width="229.735" height="145.794" fill="white"/>
<rect x="17.6877" y="56.1776" width="24.7407" height="10.1141" fill="#E8ECED"/>
<rect x="46.8467" y="56.1776" width="24.7407" height="10.1141" fill="#E8ECED"/>
<rect x="76.0054" y="56.1776" width="24.7407" height="10.1141" fill="#E8ECED"/>
<path d="M20.3259 41.9025V40.2H23.1327C23.6337 40.2 24.0223 40.0466 24.2984 39.7398C24.5847 39.4331 24.7279 39.0701 24.7279 38.6508C24.7279 38.3645 24.6665 38.1038 24.5438 37.8686C24.4211 37.6334 24.237 37.4494 23.9916 37.3164C23.7564 37.1733 23.4701 37.1017 23.1327 37.1017H20.3259V35.4145H22.9026C23.3321 35.4145 23.6746 35.3072 23.9303 35.0924C24.1961 34.8777 24.3291 34.5556 24.3291 34.1261C24.3291 33.6865 24.1961 33.3592 23.9303 33.1445C23.6746 32.9298 23.3321 32.8224 22.9026 32.8224H20.3259V31.1199H23.148C23.8638 31.1199 24.462 31.2528 24.9426 31.5187C25.4334 31.7743 25.8015 32.1169 26.0469 32.5463C26.2923 32.9656 26.415 33.4257 26.415 33.9267C26.415 34.5403 26.2259 35.072 25.8475 35.5219C25.4794 35.9616 24.9375 36.2888 24.2217 36.5035L24.3137 35.8286C25.1113 36.0536 25.7248 36.4268 26.1543 36.9483C26.594 37.4596 26.8138 38.0782 26.8138 38.8042C26.8138 39.3768 26.6707 39.8983 26.3843 40.3687C26.1083 40.8288 25.6993 41.202 25.1573 41.4883C24.6256 41.7644 23.9763 41.9025 23.2094 41.9025H20.3259ZM18.7921 41.9025V31.1199H20.8627V41.9025H18.7921ZM27.7933 41.9025V30.8131H29.8025V41.9025H27.7933ZM34.6044 42.0558C33.858 42.0558 33.1831 41.8871 32.5798 41.5497C31.9867 41.202 31.5112 40.7368 31.1534 40.1539C30.8057 39.5609 30.6319 38.9013 30.6319 38.1754C30.6319 37.4494 30.8057 36.8 31.1534 36.2274C31.501 35.6446 31.9765 35.1845 32.5798 34.847C33.1831 34.4994 33.8528 34.3255 34.5891 34.3255C35.3457 34.3255 36.0206 34.4994 36.6137 34.847C37.217 35.1845 37.6924 35.6446 38.0401 36.2274C38.3878 36.8 38.5616 37.4494 38.5616 38.1754C38.5616 38.9013 38.3878 39.5609 38.0401 40.1539C37.6924 40.7368 37.217 41.202 36.6137 41.5497C36.0206 41.8871 35.3508 42.0558 34.6044 42.0558ZM34.5891 40.1846C34.9674 40.1846 35.2997 40.1028 35.586 39.9392C35.8826 39.7654 36.1075 39.5302 36.2609 39.2337C36.4245 38.9269 36.5063 38.5792 36.5063 38.1907C36.5063 37.8021 36.4245 37.4596 36.2609 37.163C36.0973 36.8665 35.8723 36.6364 35.586 36.4728C35.2997 36.299 34.9674 36.2121 34.5891 36.2121C34.2209 36.2121 33.8937 36.299 33.6074 36.4728C33.3211 36.6364 33.0962 36.8665 32.9326 37.163C32.769 37.4596 32.6872 37.8021 32.6872 38.1907C32.6872 38.5792 32.769 38.9269 32.9326 39.2337C33.0962 39.5302 33.3211 39.7654 33.6074 39.9392C33.8937 40.1028 34.2209 40.1846 34.5891 40.1846ZM42.4932 45.1848C41.7059 45.1848 41.0106 45.0416 40.4073 44.7553C39.804 44.4792 39.3234 44.0856 38.9655 43.5743L40.2386 42.3013C40.5249 42.6387 40.8419 42.8943 41.1895 43.0681C41.5474 43.2522 41.9769 43.3442 42.4779 43.3442C43.1016 43.3442 43.5925 43.1857 43.9503 42.8688C44.3185 42.5518 44.5025 42.1121 44.5025 41.5497V39.6938L44.8399 38.068L44.5178 36.4422V34.4942H46.5118V41.519C46.5118 42.2552 46.3379 42.8943 45.9903 43.4363C45.6529 43.9884 45.1825 44.4179 44.5792 44.7246C43.9759 45.0314 43.2806 45.1848 42.4932 45.1848ZM42.4012 41.7031C41.7366 41.7031 41.1384 41.5446 40.6067 41.2276C40.075 40.9004 39.6557 40.4556 39.349 39.8932C39.0524 39.3308 38.9042 38.702 38.9042 38.0066C38.9042 37.3113 39.0524 36.6876 39.349 36.1354C39.6557 35.5832 40.075 35.1487 40.6067 34.8317C41.1384 34.5045 41.7366 34.3409 42.4012 34.3409C42.9534 34.3409 43.4391 34.4482 43.8583 34.663C44.2878 34.8777 44.6252 35.1742 44.8706 35.5526C45.116 35.9207 45.249 36.3552 45.2694 36.8563V39.1877C45.249 39.6785 45.1109 40.1182 44.8553 40.5067C44.6099 40.8851 44.2724 41.1816 43.843 41.3963C43.4237 41.6008 42.9432 41.7031 42.4012 41.7031ZM42.8 39.8779C43.1681 39.8779 43.4851 39.8012 43.751 39.6478C44.027 39.4842 44.2418 39.2643 44.3951 38.9883C44.5485 38.702 44.6252 38.3799 44.6252 38.022C44.6252 37.6539 44.5485 37.3318 44.3951 37.0557C44.2418 36.7796 44.027 36.5649 43.751 36.4115C43.4851 36.2479 43.1681 36.1661 42.8 36.1661C42.4319 36.1661 42.1098 36.2479 41.8337 36.4115C41.5576 36.5649 41.3429 36.7847 41.1895 37.071C41.0361 37.3471 40.9594 37.6641 40.9594 38.022C40.9594 38.3696 41.0361 38.6866 41.1895 38.9729C41.3429 39.249 41.5576 39.4688 41.8337 39.6325C42.1098 39.7961 42.4319 39.8779 42.8 39.8779ZM55.5675 42.0558C54.7802 42.0558 54.049 41.9178 53.3742 41.6417C52.6993 41.3554 52.1062 40.9617 51.595 40.4607C51.0939 39.9494 50.7054 39.3564 50.4293 38.6815C50.1634 38.0066 50.0305 37.2806 50.0305 36.5035C50.0305 35.7264 50.1634 35.0004 50.4293 34.3255C50.7054 33.6507 51.0939 33.0627 51.595 32.5617C52.1062 32.0606 52.6942 31.667 53.3588 31.3806C54.0337 31.0943 54.7699 30.9512 55.5675 30.9512C56.4264 30.9512 57.1831 31.0943 57.8375 31.3806C58.4919 31.6567 59.0697 32.0402 59.5707 32.531L58.1596 33.9421C57.8631 33.6149 57.5001 33.3592 57.0706 33.1752C56.6412 32.9911 56.1401 32.8991 55.5675 32.8991C55.0665 32.8991 54.6063 32.986 54.1871 33.1598C53.7781 33.3235 53.4202 33.5689 53.1134 33.8961C52.8067 34.2131 52.5715 34.5965 52.4079 35.0464C52.2443 35.4861 52.1625 35.9718 52.1625 36.5035C52.1625 37.0455 52.2443 37.5363 52.4079 37.976C52.5715 38.4156 52.8067 38.7991 53.1134 39.1263C53.4202 39.4433 53.7781 39.6887 54.1871 39.8625C54.6063 40.0364 55.0665 40.1233 55.5675 40.1233C56.1708 40.1233 56.6872 40.0312 57.1166 39.8472C57.5563 39.6631 57.9244 39.4024 58.221 39.0649L59.6321 40.476C59.131 40.9771 58.5482 41.3656 57.8835 41.6417C57.2189 41.9178 56.4469 42.0558 55.5675 42.0558ZM60.6221 41.9025V31.1199H62.0945L66.4658 38.114H65.6222L69.9782 31.1199H71.4506V41.9025H69.38V34.6936L69.7788 34.8163L66.7419 39.6938H65.3308L62.2939 34.8163L62.708 34.6936V41.9025H60.6221ZM76.1124 42.0558C75.2433 42.0558 74.4968 41.9076 73.8731 41.611C73.2596 41.3145 72.7023 40.8697 72.2012 40.2766L73.5817 38.8962C73.8986 39.3155 74.2668 39.6427 74.686 39.8779C75.1052 40.1028 75.6165 40.2153 76.2198 40.2153C76.7617 40.2153 77.1912 40.1079 77.5082 39.8932C77.8354 39.6785 77.999 39.3819 77.999 39.0036C77.999 38.6764 77.907 38.4105 77.7229 38.206C77.5388 38.0015 77.2934 37.8277 76.9867 37.6845C76.6901 37.5414 76.3578 37.4136 75.9897 37.3011C75.6318 37.1784 75.2688 37.0403 74.9007 36.887C74.5428 36.7336 74.2105 36.5444 73.9038 36.3195C73.6072 36.0843 73.3669 35.7877 73.1829 35.4299C72.9988 35.0618 72.9068 34.6016 72.9068 34.0494C72.9068 33.395 73.0653 32.8378 73.3823 32.3776C73.6992 31.9175 74.1338 31.5647 74.686 31.3193C75.2382 31.0739 75.8619 30.9512 76.5572 30.9512C77.2934 30.9512 77.9581 31.0892 78.5511 31.3653C79.1442 31.6414 79.6299 31.9993 80.0082 32.439L78.6278 33.8194C78.3108 33.4717 77.9836 33.2161 77.6462 33.0525C77.319 32.8889 76.9458 32.8071 76.5265 32.8071C76.0459 32.8071 75.6676 32.8991 75.3915 33.0832C75.1154 33.2672 74.9774 33.5331 74.9774 33.8807C74.9774 34.1773 75.0694 34.4176 75.2535 34.6016C75.4375 34.7857 75.6778 34.9442 75.9744 35.0771C76.2811 35.21 76.6135 35.3378 76.9713 35.4605C77.3394 35.5832 77.7024 35.7213 78.0603 35.8747C78.4284 36.028 78.7608 36.2274 79.0573 36.4728C79.3641 36.7182 79.6095 37.0352 79.7935 37.4238C79.9776 37.8021 80.0696 38.2725 80.0696 38.8349C80.0696 39.837 79.7168 40.6243 79.0113 41.1969C78.3057 41.7695 77.3394 42.0558 76.1124 42.0558Z" fill="black"/>
<rect x="17.6877" y="83.5692" width="60.0847" height="37.1111" fill="#E8ECED"/>
<rect x="84.8413" y="83.5692" width="60.0847" height="37.1111" fill="#E8ECED"/>
<rect x="151.995" y="83.5692" width="60.0847" height="37.1111" fill="#E8ECED"/>
</svg>
