<svg width="231" height="160" viewBox="0 0 231 160" fill="none" xmlns="http://www.w3.org/2000/svg">
<rect x="0.875977" y="29.5702" width="229.129" height="129.696" fill="white"/>
<rect x="0.875977" y="0.749008" width="229.129" height="28.8213" fill="black"/>
<rect x="10.2429" y="10.1158" width="31.7034" height="10.0875" fill="white"/>
<rect x="124.808" y="10.1158" width="56.9221" height="10.0875" fill="#E8ECED"/>
<rect x="189.655" y="10.1158" width="31.7034" height="10.0875" fill="#6DD1ED"/>
<rect x="123.727" y="61.2737" width="97.6321" height="67.0095" fill="#E8ECED"/>
<rect x="10.2427" y="92.2565" width="97.9924" height="10.0875" fill="#E8ECED"/>
<path d="M11.3441 84.6405V73.8864H13.4245V84.6405H11.3441ZM18.0903 84.6405V73.8864H20.1707V84.6405H18.0903ZM12.6597 80.0054V78.1697H18.6716V80.0054H12.6597ZM25.2296 84.7935C24.4546 84.7935 23.7662 84.6303 23.1645 84.304C22.5628 83.9674 22.0835 83.5085 21.7265 82.9272C21.3798 82.3459 21.2064 81.683 21.2064 80.9385C21.2064 80.2043 21.3747 79.5516 21.7112 78.9805C22.058 78.3992 22.5271 77.9402 23.1186 77.6037C23.7101 77.257 24.3679 77.0836 25.092 77.0836C25.8058 77.0836 26.433 77.2468 26.9736 77.5731C27.5243 77.8892 27.9526 78.3278 28.2585 78.8887C28.5747 79.4394 28.7328 80.0666 28.7328 80.7703C28.7328 80.9028 28.7226 81.0405 28.7022 81.1833C28.692 81.3159 28.6665 81.4689 28.6257 81.6422L22.4149 81.6575V80.1584L27.6925 80.1431L26.8818 80.7703C26.8614 80.3317 26.7798 79.9646 26.637 79.6689C26.5044 79.3731 26.3056 79.1487 26.0404 78.9958C25.7854 78.8326 25.4693 78.751 25.092 78.751C24.6942 78.751 24.3475 78.8428 24.0517 79.0264C23.756 79.1997 23.5265 79.4496 23.3634 79.7759C23.2104 80.0921 23.1339 80.4694 23.1339 80.9079C23.1339 81.3567 23.2155 81.7493 23.3786 82.0859C23.552 82.4122 23.7968 82.6672 24.1129 82.8507C24.4291 83.0241 24.7962 83.1108 25.2143 83.1108C25.5917 83.1108 25.9333 83.0496 26.2393 82.9272C26.5452 82.7946 26.8104 82.6009 27.0347 82.3459L28.2126 83.5238C27.8557 83.9419 27.4172 84.2581 26.8971 84.4723C26.3871 84.6864 25.8313 84.7935 25.2296 84.7935ZM32.6033 84.7935C31.9302 84.7935 31.3234 84.6252 30.7829 84.2887C30.2423 83.9521 29.8191 83.4932 29.5132 82.9119C29.2072 82.3306 29.0542 81.6779 29.0542 80.9538C29.0542 80.2196 29.2072 79.5618 29.5132 78.9805C29.8191 78.3992 30.2423 77.9402 30.7829 77.6037C31.3234 77.2672 31.9302 77.0989 32.6033 77.0989C33.1336 77.0989 33.6078 77.206 34.0259 77.4201C34.444 77.6343 34.7755 77.9351 35.0202 78.3227C35.2752 78.7 35.4129 79.1283 35.4333 79.6077V82.2694C35.4129 82.7589 35.2752 83.1924 35.0202 83.5697C34.7755 83.947 34.444 84.2479 34.0259 84.4723C33.6078 84.6864 33.1336 84.7935 32.6033 84.7935ZM32.9704 82.9425C33.5313 82.9425 33.9851 82.7589 34.3319 82.3918C34.6786 82.0145 34.852 81.53 34.852 80.9385C34.852 80.551 34.7704 80.2094 34.6072 79.9136C34.4542 79.6077 34.235 79.3731 33.9494 79.2099C33.6741 79.0366 33.3477 78.9499 32.9704 78.9499C32.6033 78.9499 32.2769 79.0366 31.9914 79.2099C31.716 79.3731 31.4967 79.6077 31.3336 79.9136C31.1806 80.2094 31.1041 80.551 31.1041 80.9385C31.1041 81.3363 31.1806 81.6881 31.3336 81.9941C31.4967 82.2898 31.716 82.5244 31.9914 82.6977C32.2769 82.8609 32.6033 82.9425 32.9704 82.9425ZM34.7449 84.6405V82.6519L35.0661 80.8468L34.7449 79.0723V77.2519H36.7336V84.6405H34.7449ZM41.1682 84.7935C40.4849 84.7935 39.873 84.6252 39.3325 84.2887C38.7919 83.9521 38.3636 83.4932 38.0475 82.9119C37.7415 82.3306 37.5885 81.6779 37.5885 80.9538C37.5885 80.2196 37.7415 79.5618 38.0475 78.9805C38.3636 78.3992 38.7869 77.9402 39.3172 77.6037C39.8577 77.2672 40.4747 77.0989 41.1682 77.0989C41.6985 77.0989 42.1727 77.206 42.5908 77.4201C43.0191 77.6343 43.3608 77.9351 43.6157 78.3227C43.8809 78.7 44.0237 79.1283 44.0441 79.6077V82.2388C44.0237 82.7181 43.886 83.1516 43.631 83.5391C43.3761 83.9266 43.0344 84.2326 42.6061 84.457C42.1778 84.6813 41.6985 84.7935 41.1682 84.7935ZM41.5047 82.9425C41.882 82.9425 42.2084 82.8609 42.4837 82.6977C42.7693 82.5244 42.9886 82.2898 43.1415 81.9941C43.3047 81.6881 43.3863 81.3363 43.3863 80.9385C43.3863 80.551 43.3047 80.2094 43.1415 79.9136C42.9886 79.6077 42.7693 79.3731 42.4837 79.2099C42.2084 79.0366 41.8871 78.9499 41.52 78.9499C41.1427 78.9499 40.8112 79.0366 40.5257 79.2099C40.2503 79.3833 40.031 79.6179 39.8679 79.9136C39.7149 80.2094 39.6384 80.551 39.6384 80.9385C39.6384 81.3363 39.7149 81.6881 39.8679 81.9941C40.031 82.2898 40.2554 82.5244 40.541 82.6977C40.8265 82.8609 41.1478 82.9425 41.5047 82.9425ZM45.2679 84.6405H43.2792V82.6519L43.6005 80.8468L43.2639 79.0723V73.5805H45.2679V84.6405ZM50.1155 84.7935C49.3404 84.7935 48.652 84.6303 48.0503 84.304C47.4486 83.9674 46.9693 83.5085 46.6124 82.9272C46.2656 82.3459 46.0923 81.683 46.0923 80.9385C46.0923 80.2043 46.2605 79.5516 46.5971 78.9805C46.9438 78.3992 47.4129 77.9402 48.0044 77.6037C48.5959 77.257 49.2537 77.0836 49.9778 77.0836C50.6917 77.0836 51.3189 77.2468 51.8594 77.5731C52.4101 77.8892 52.8384 78.3278 53.1444 78.8887C53.4605 79.4394 53.6186 80.0666 53.6186 80.7703C53.6186 80.9028 53.6084 81.0405 53.588 81.1833C53.5778 81.3159 53.5523 81.4689 53.5115 81.6422L47.3008 81.6575V80.1584L52.5784 80.1431L51.7676 80.7703C51.7472 80.3317 51.6656 79.9646 51.5229 79.6689C51.3903 79.3731 51.1914 79.1487 50.9263 78.9958C50.6713 78.8326 50.3552 78.751 49.9778 78.751C49.5801 78.751 49.2333 78.8428 48.9376 79.0264C48.6418 79.1997 48.4124 79.4496 48.2492 79.7759C48.0962 80.0921 48.0197 80.4694 48.0197 80.9079C48.0197 81.3567 48.1013 81.7493 48.2645 82.0859C48.4379 82.4122 48.6826 82.6672 48.9988 82.8507C49.3149 83.0241 49.6821 83.1108 50.1002 83.1108C50.4775 83.1108 50.8192 83.0496 51.1251 82.9272C51.4311 82.7946 51.6962 82.6009 51.9206 82.3459L53.0985 83.5238C52.7416 83.9419 52.303 84.2581 51.7829 84.4723C51.273 84.6864 50.7172 84.7935 50.1155 84.7935ZM54.399 84.6405V77.2519H56.403V84.6405H54.399ZM56.403 80.5561L55.6228 80.036C55.7146 79.1283 55.9798 78.4145 56.4183 77.8943C56.8568 77.364 57.4891 77.0989 58.3152 77.0989C58.6721 77.0989 58.9934 77.1601 59.2789 77.2825C59.5645 77.3946 59.8245 77.5833 60.0591 77.8485L58.8047 79.2864C58.6925 79.164 58.5548 79.0723 58.3917 79.0111C58.2387 78.9499 58.0602 78.9193 57.8562 78.9193C57.4279 78.9193 57.0761 79.057 56.8007 79.3323C56.5356 79.5975 56.403 80.0054 56.403 80.5561ZM62.6791 84.8088C62.261 84.8088 61.848 84.7527 61.44 84.6405C61.0423 84.5283 60.6752 84.3754 60.3386 84.1816C60.0021 83.9776 59.7114 83.7329 59.4667 83.4473L60.6599 82.2388C60.9148 82.5244 61.2106 82.7385 61.5471 82.8813C61.8837 83.0241 62.2559 83.0955 62.6638 83.0955C62.9902 83.0955 63.2349 83.0496 63.3981 82.9578C63.5715 82.866 63.6582 82.7283 63.6582 82.5448C63.6582 82.3408 63.5664 82.1827 63.3828 82.0706C63.2094 81.9584 62.98 81.8666 62.6944 81.7952C62.4089 81.7136 62.108 81.6269 61.7919 81.5351C61.4859 81.4332 61.1902 81.3057 60.9046 81.1527C60.6191 80.9895 60.3845 80.7703 60.2009 80.4949C60.0276 80.2094 59.9409 79.8422 59.9409 79.3935C59.9409 78.9244 60.0531 78.5164 60.2774 78.1697C60.512 77.823 60.8434 77.5527 61.2718 77.3589C61.7001 77.1652 62.2049 77.0683 62.7862 77.0683C63.3981 77.0683 63.9488 77.1754 64.4383 77.3895C64.938 77.6037 65.3511 77.9249 65.6774 78.3533L64.4689 79.5618C64.2446 79.2864 63.9896 79.0876 63.7041 78.9652C63.4287 78.8428 63.1279 78.7816 62.8015 78.7816C62.5058 78.7816 62.2763 78.8275 62.1131 78.9193C61.9601 79.0111 61.8837 79.1385 61.8837 79.3017C61.8837 79.4853 61.9703 79.6281 62.1437 79.73C62.3273 79.832 62.5618 79.9238 62.8474 80.0054C63.1329 80.0768 63.4287 80.1635 63.7346 80.2655C64.0508 80.3572 64.3465 80.4898 64.6219 80.6632C64.9075 80.8366 65.1369 81.066 65.3103 81.3516C65.4939 81.6371 65.5856 82.0043 65.5856 82.453C65.5856 83.1771 65.3256 83.7533 64.8055 84.1816C64.2854 84.5997 63.5766 84.8088 62.6791 84.8088Z" fill="black"/>
<rect x="10.2429" y="108.829" width="31.7034" height="10.0875" fill="#6DD1ED"/>
</svg>
