<svg width="94" height="40" viewBox="0 0 94 40" fill="none" xmlns="http://www.w3.org/2000/svg">
<rect x="0.185547" width="93.3333" height="40" rx="8" fill="white"/>
<rect width="46.6667" height="40" rx="8" fill="#6DD1ED"/>
<path d="M23.7955 25.3472C26.7487 25.3472 29.1427 22.9531 29.1427 19.9999C29.1427 17.0467 26.7487 14.6527 23.7955 14.6527C20.8423 14.6527 18.4482 17.0467 18.4482 19.9999C18.4482 22.9531 20.8423 25.3472 23.7955 25.3472Z" fill="black"/>
<path d="M23.7956 28.3722C23.3755 28.3722 23.0317 28.059 23.0317 27.6388V27.5777C23.0317 27.1576 23.3755 26.8138 23.7956 26.8138C24.2157 26.8138 24.5595 27.1576 24.5595 27.5777C24.5595 27.9979 24.2157 28.3722 23.7956 28.3722ZM29.2498 26.218C29.0512 26.218 28.8602 26.1416 28.7074 25.9965L28.6081 25.8972C28.3102 25.5992 28.3102 25.118 28.6081 24.8201C28.906 24.5222 29.3873 24.5222 29.6852 24.8201L29.7845 24.9194C30.0824 25.2173 30.0824 25.6986 29.7845 25.9965C29.6393 26.1416 29.4484 26.218 29.2498 26.218ZM18.3414 26.218C18.1428 26.218 17.9518 26.1416 17.7991 25.9965C17.5012 25.6986 17.5012 25.2173 17.7991 24.9194L17.8984 24.8201C18.1963 24.5222 18.6775 24.5222 18.9755 24.8201C19.2734 25.118 19.2734 25.5992 18.9755 25.8972L18.8762 25.9965C18.731 26.1416 18.5324 26.218 18.3414 26.218ZM31.4345 20.7638H31.3734C30.9532 20.7638 30.6095 20.4201 30.6095 19.9999C30.6095 19.5798 30.9532 19.2361 31.3734 19.2361C31.7935 19.2361 32.1678 19.5798 32.1678 19.9999C32.1678 20.4201 31.8546 20.7638 31.4345 20.7638ZM16.2178 20.7638H16.1567C15.7366 20.7638 15.3928 20.4201 15.3928 19.9999C15.3928 19.5798 15.7366 19.2361 16.1567 19.2361C16.5768 19.2361 16.9512 19.5798 16.9512 19.9999C16.9512 20.4201 16.638 20.7638 16.2178 20.7638ZM29.1505 15.409C28.9518 15.409 28.7609 15.3326 28.6081 15.1874C28.3102 14.8895 28.3102 14.4083 28.6081 14.1104L28.7074 14.0111C29.0053 13.7131 29.4866 13.7131 29.7845 14.0111C30.0824 14.309 30.0824 14.7902 29.7845 15.0881L29.6852 15.1874C29.54 15.3326 29.3491 15.409 29.1505 15.409ZM18.4407 15.409C18.2421 15.409 18.0512 15.3326 17.8984 15.1874L17.7991 15.0805C17.5012 14.7826 17.5012 14.3013 17.7991 14.0034C18.097 13.7055 18.5782 13.7055 18.8762 14.0034L18.9755 14.1027C19.2734 14.4006 19.2734 14.8819 18.9755 15.1798C18.8303 15.3326 18.6317 15.409 18.4407 15.409ZM23.7956 13.1555C23.3755 13.1555 23.0317 12.8423 23.0317 12.4222V12.3611C23.0317 11.9409 23.3755 11.5972 23.7956 11.5972C24.2157 11.5972 24.5595 11.9409 24.5595 12.3611C24.5595 12.7812 24.2157 13.1555 23.7956 13.1555Z" fill="black"/>
<rect x="46.6665" width="46.6667" height="40" rx="8" fill="white"/>
<path d="M77.4653 23.0021C77.3431 22.7958 76.9993 22.475 76.1438 22.6278C75.6702 22.7118 75.1889 22.75 74.7077 22.7271C72.9278 22.6507 71.316 21.8333 70.1931 20.5729C69.2 19.4653 68.5889 18.0215 68.5813 16.4632C68.5813 15.5924 68.7493 14.7521 69.0931 13.9576C69.4292 13.1861 69.1924 12.7812 69.0243 12.6132C68.8486 12.4375 68.4361 12.193 67.6264 12.5292C64.5021 13.843 62.5695 16.975 62.7986 20.3285C63.0278 23.4833 65.2431 26.1799 68.1764 27.1958C68.8792 27.4403 69.6202 27.5854 70.3841 27.616C70.5063 27.6236 70.6285 27.6312 70.7507 27.6312C73.3098 27.6312 75.7084 26.4243 77.2209 24.3694C77.7327 23.659 77.5952 23.2083 77.4653 23.0021Z" fill="black"/>
</svg>
