<svg width="66" height="19" viewBox="0 0 66 19" fill="none" xmlns="http://www.w3.org/2000/svg">
<path d="M0.392 18V0.647999H3.536V18H0.392ZM10.4497 18.24C9.39369 18.24 8.44169 17.976 7.59369 17.448C6.74569 16.92 6.08169 16.2 5.60169 15.288C5.12169 14.376 4.88169 13.352 4.88169 12.216C4.88169 11.064 5.12169 10.032 5.60169 9.12C6.08169 8.208 6.74569 7.488 7.59369 6.96C8.44169 6.432 9.39369 6.168 10.4497 6.168C11.2817 6.168 12.0257 6.336 12.6817 6.672C13.3377 7.008 13.8577 7.48 14.2417 8.088C14.6417 8.68 14.8577 9.352 14.8897 10.104V14.28C14.8577 15.048 14.6417 15.728 14.2417 16.32C13.8577 16.912 13.3377 17.384 12.6817 17.736C12.0257 18.072 11.2817 18.24 10.4497 18.24ZM11.0257 15.336C11.9057 15.336 12.6177 15.048 13.1617 14.472C13.7057 13.88 13.9777 13.12 13.9777 12.192C13.9777 11.584 13.8497 11.048 13.5937 10.584C13.3537 10.104 13.0097 9.736 12.5617 9.48C12.1297 9.208 11.6177 9.072 11.0257 9.072C10.4497 9.072 9.93769 9.208 9.48969 9.48C9.05769 9.736 8.71369 10.104 8.45769 10.584C8.21769 11.048 8.09769 11.584 8.09769 12.192C8.09769 12.816 8.21769 13.368 8.45769 13.848C8.71369 14.312 9.05769 14.68 9.48969 14.952C9.93769 15.208 10.4497 15.336 11.0257 15.336ZM13.8097 18V14.88L14.3137 12.048L13.8097 9.264V6.408H16.9297V18H13.8097ZM23.9351 18.24C22.9111 18.24 21.9991 18.024 21.1991 17.592C20.4151 17.16 19.7991 16.56 19.3511 15.792C18.9031 15.024 18.6791 14.136 18.6791 13.128V6.408H21.8471V13.056C21.8471 13.536 21.9271 13.952 22.0871 14.304C22.2471 14.64 22.4871 14.896 22.8071 15.072C23.1271 15.248 23.5031 15.336 23.9351 15.336C24.5911 15.336 25.1031 15.136 25.4711 14.736C25.8391 14.336 26.0231 13.776 26.0231 13.056V6.408H29.1671V13.128C29.1671 14.152 28.9431 15.048 28.4951 15.816C28.0631 16.584 27.4471 17.184 26.6471 17.616C25.8631 18.032 24.9591 18.24 23.9351 18.24ZM38.7508 18V11.352C38.7508 10.664 38.5348 10.104 38.1028 9.672C37.6708 9.24 37.1108 9.024 36.4228 9.024C35.9748 9.024 35.5748 9.12 35.2228 9.312C34.8708 9.504 34.5908 9.776 34.3828 10.128C34.1908 10.48 34.0948 10.888 34.0948 11.352L32.8708 10.728C32.8708 9.816 33.0628 9.024 33.4468 8.352C33.8468 7.664 34.3908 7.128 35.0788 6.744C35.7828 6.36 36.5748 6.168 37.4548 6.168C38.3028 6.168 39.0628 6.384 39.7348 6.816C40.4068 7.232 40.9348 7.784 41.3188 8.472C41.7028 9.144 41.8948 9.872 41.8948 10.656V18H38.7508ZM30.9508 18V6.408H34.0948V18H30.9508ZM49.1793 18.24C47.9953 18.24 46.9313 17.976 45.9873 17.448C45.0433 16.92 44.2993 16.2 43.7553 15.288C43.2113 14.376 42.9393 13.352 42.9393 12.216C42.9393 11.064 43.2113 10.032 43.7553 9.12C44.2993 8.208 45.0433 7.488 45.9873 6.96C46.9473 6.416 48.0113 6.144 49.1793 6.144C50.0913 6.144 50.9313 6.312 51.6993 6.648C52.4673 6.984 53.1313 7.464 53.6913 8.088L51.6753 10.128C51.3713 9.792 51.0033 9.536 50.5713 9.36C50.1553 9.184 49.6913 9.096 49.1793 9.096C48.6033 9.096 48.0833 9.232 47.6193 9.504C47.1713 9.76 46.8113 10.12 46.5393 10.584C46.2833 11.032 46.1553 11.568 46.1553 12.192C46.1553 12.8 46.2833 13.344 46.5393 13.824C46.8113 14.288 47.1713 14.656 47.6193 14.928C48.0833 15.184 48.6033 15.312 49.1793 15.312C49.7073 15.312 50.1793 15.224 50.5953 15.048C51.0273 14.856 51.3953 14.584 51.6993 14.232L53.7393 16.272C53.1473 16.912 52.4673 17.4 51.6993 17.736C50.9313 18.072 50.0913 18.24 49.1793 18.24ZM62.5998 18V11.352C62.5998 10.664 62.3838 10.104 61.9518 9.672C61.5198 9.24 60.9598 9.024 60.2718 9.024C59.8238 9.024 59.4238 9.12 59.0718 9.312C58.7198 9.504 58.4398 9.776 58.2318 10.128C58.0398 10.48 57.9438 10.888 57.9438 11.352L56.7198 10.728C56.7198 9.816 56.9118 9.024 57.2958 8.352C57.6798 7.664 58.2078 7.128 58.8798 6.744C59.5678 6.36 60.3518 6.168 61.2318 6.168C62.1118 6.168 62.8878 6.36 63.5598 6.744C64.2478 7.128 64.7838 7.656 65.1678 8.328C65.5518 9 65.7438 9.776 65.7438 10.656V18H62.5998ZM54.7998 18V0.647999H57.9438V18H54.7998Z" fill="white"/>
</svg>
